PathFileType	4	(X/Y/Z)	C:/Users/opensim2020/Desktop/walking_exp_matlab/subject03_walking13_straight_01.trc																																																																																																																																								
DataRate	CameraRate	NumFrames	NumMarkers	Units	OrigDataRate	OrigDataStartFrame	OrigNumFrames																																																																																																																																				
100	100	6	46	mm	100	569	185																																																																																																																																				
Frame#	Time	LFHD			RFHD			LBHD			RBHD			C7			T10			CLAV			STRN			RBAK			LSHO			LUPA			LELB			LFRM			LWRA			LWRB			LFIN			RSHO			RUPA			RELB			RFRM			RWRA			RWRB			RFIN			LASI			RASI			LPSI			RPSI			LTHI			LKNE			LTIB			LANK			LHEE			LTOE			RTHI			RKNE			RTIB			RANK			RHEE			RTOE			*39			*40			*41			*42			*43			*44			*45		
		X1	Y1	Z1	X2	Y2	Z2	X3	Y3	Z3	X4	Y4	Z4	X5	Y5	Z5	X6	Y6	Z6	X7	Y7	Z7	X8	Y8	Z8	X9	Y9	Z9	X10	Y10	Z10	X11	Y11	Z11	X12	Y12	Z12	X13	Y13	Z13	X14	Y14	Z14	X15	Y15	Z15	X16	Y16	Z16	X17	Y17	Z17	X18	Y18	Z18	X19	Y19	Z19	X20	Y20	Z20	X21	Y21	Z21	X22	Y22	Z22	X23	Y23	Z23	X24	Y24	Z24	X25	Y25	Z25	X26	Y26	Z26	X27	Y27	Z27	X28	Y28	Z28	X29	Y29	Z29	X30	Y30	Z30	X31	Y31	Z31	X32	Y32	Z32	X33	Y33	Z33	X34	Y34	Z34	X35	Y35	Z35	X36	Y36	Z36	X37	Y37	Z37	X38	Y38	Z38	X39	Y39	Z39	X40	Y40	Z40	X41	Y41	Z41	X42	Y42	Z42	X43	Y43	Z43	X44	Y44	Z44	X45	Y45	Z45	X46	Y46	Z46
																																																																																																																																											
24	0.23	-1020.35431	1619.29785	-1062.51062	-1046.63916	1613.57874	-931.46826	-1134.47595	1550.97803	-1084.68726	-1156.04785	1545.51746	-955.37915	-1149.57959	1401.69092	-1037.4126	-1212.14404	1102.47241	-1034.69763	-1026.61877	1324.23206	-1018.7937	-996.21301	1153.33765	-1019.3844	-1219.29785	1236.25378	-943.98535	-1050.45251	1368.646	-1177.43774	-1085.3855	1175.4259	-1251.44897	-1104.2832	1053.20142	-1263.01843	-1120.08655	923.02527	-1265.92371	-1155.25671	804.966	-1244.67029	-1154.93579	818.23743	-1299.69739	-1203.9093	742.89899	-1295.67786	-1095.39136	1354.71606	-868.42578	-1102.13318	1135.92395	-791.38989	-1082.89795	1024.36731	-778.78845	-1050.6698	891.8299	-780.25952	-1013.35254	801.50909	-821.26764	-1035.90942	793.82446	-773.01581	-998.09119	731.58423	-784.62683	-1055.95203	931.74664	-1126.474	-1093.88562	915.84491	-900.17017	-1222.71313	958.85864	-1107.16101	-1242.60291	958.69122	-958.68542	-1052.88818	636.83685	-1186.65454	-1010.5191	467.42996	-1141.40002	-1059.42554	272.7937	-1153.29224	-1092.20068	63.96769	-1118.26807	-1139.55298	28.36424	-1089.74695	-950.18469	31.16861	-1064.35596	-1177.11011	617.45276	-858.74072	-1170.49402	436.8624	-876.02783	-1325.23584	324.11783	-895.17328	-1490.45898	198.2916	-962.2453	-1527.45374	213.67805	-1025.8429	-1453.91602	59.69555	-963.51117	-1121.77417	1657.77417	-1025.64063	NaN	NaN	NaN	NaN	NaN	NaN	NaN	NaN	NaN	NaN	NaN	NaN	NaN	NaN	NaN	NaN	NaN	NaN
25	0.24	-1010.27112	1621.08374	-1063.19385	-1036.76172	1615.50903	-932.27856	-1124.2467	1552.73621	-1085.61426	-1146.1626	1547.42017	-956.35651	-1139.43103	1403.15417	-1038.96631	-1201.66992	1104.06641	-1035.69312	-1016.54425	1326.02222	-1018.92633	-985.89789	1155.08813	-1019.2149	-1209.58557	1237.67725	-945.99573	-1038.65625	1369.96094	-1177.86157	-1070.15771	1176.21924	-1251.54919	-1087.94531	1053.85022	-1263.09924	-1102.01306	923.35388	-1265.48486	-1136.48987	804.39966	-1243.51184	-1134.74707	817.89514	-1298.99268	-1183.31458	741.62177	-1295.49805	-1086.72314	1356.27869	-869.26208	-1094.49207	1137.53906	-792.27686	-1075.97925	1025.84155	-779.33258	-1044.93848	893.00122	-780.1925	-1008.1795	802.01483	-820.45441	-1031.40601	794.81488	-772.40491	-994.8092	731.66248	-783.78369	-1045.54944	933.07764	-1127.73364	-1083.28271	917.48505	-900.74817	-1212.33508	960.38745	-1107.63953	-1231.99329	959.72382	-959.23004	-1047.68066	637.06097	-1187.05762	-1008.00226	466.68375	-1141.28687	-1058.33191	272.716	-1153.85364	-1094.5614	61.17469	-1116.80066	-1139.84619	28.41916	-1089.70117	-950.54626	31.18526	-1064.35547	-1159.89893	618.08783	-858.84039	-1145.93164	437.50235	-874.87537	-1300.22766	326.4158	-894.68573	-1467.99646	203.96439	-961.50696	-1506.1571	219.30371	-1024.56665	-1430.12158	65.71956	-963.50293	-1111.65771	1659.57959	-1026.69116	NaN	NaN	NaN	NaN	NaN	NaN	NaN	NaN	NaN	NaN	NaN	NaN	NaN	NaN	NaN	NaN	NaN	NaN
26	0.25	-1000.17035	1622.83203	-1063.81982	-1026.89941	1617.44299	-932.99774	-1113.9823	1554.23352	-1086.56824	-1136.22046	1549.26892	-957.25311	-1128.94348	1404.69507	-1040.1394	-1191.17285	1105.59314	-1036.56824	-1006.45288	1327.80042	-1018.94391	-975.61096	1156.9043	-1018.99182	-1199.89771	1239.03577	-948.03156	-1027.06335	1371.14026	-1178.18335	-1054.86621	1176.7948	-1251.36108	-1071.52356	1054.26819	-1262.95996	-1083.45032	923.70764	-1265.06921	-1116.42639	804.28943	-1242.77759	-1114.0144	817.51697	-1298.30408	-1162.79602	739.71808	-1294.40771	-1077.9126	1357.8324	-869.85608	-1087.05957	1138.98486	-792.94403	-1069.26624	1027.18994	-779.72687	-1039.63232	893.9624	-779.90289	-1003.18335	802.40576	-819.64679	-1027.10559	795.65198	-771.85742	-991.53583	731.4812	-782.8678	-1035.16687	934.25134	-1128.80103	-1072.90491	919.09259	-901.1626	-1201.98376	961.94952	-1108.10901	-1221.38721	960.72906	-959.75903	-1041.73633	637.66278	-1187.26721	-1005.36884	466.23856	-1141.21802	-1057.68262	272.49258	-1153.91211	-1092.09766	63.70774	-1118.45532	-1140.14417	28.30256	-1089.89917	-950.87921	31.29595	-1064.26746	-1142.8446	619.38031	-859.03113	-1121.55322	439.19434	-873.80231	-1274.89868	328.80029	-894.39752	-1443.98035	207.79248	-960.80054	-1483.45496	222.98714	-1023.37701	-1404.2146	70.33244	-963.27802	-1101.81604	1661.56226	-1027.6156	NaN	NaN	NaN	NaN	NaN	NaN	NaN	NaN	NaN	NaN	NaN	NaN	NaN	NaN	NaN	NaN	NaN	NaN
27	0.26	-990.01007	1624.53088	-1064.44055	-1017.026	1619.34021	-933.61652	-1103.7749	1555.85498	-1087.30798	-1126.17505	1551.04578	-958.05457	-1118.53967	1406.54395	-1041.13025	-1180.68506	1106.9707	-1037.39893	-996.28168	1329.54944	-1019.24957	-965.35413	1158.60266	-1018.82428	-1190.22876	1240.45032	-949.97656	-1015.60925	1372.26221	-1178.44507	-1039.59778	1177.32178	-1250.86853	-1054.68481	1054.67017	-1262.66748	-1064.65735	923.96417	-1264.19873	-1095.72717	804.20959	-1242.04565	-1092.78528	817.1922	-1297.61816	-1139.09558	738.12616	-1294.1283	-1068.97351	1359.16211	-870.35876	-1079.65662	1140.33472	-793.56946	-1062.63452	1028.37976	-780.05219	-1034.41748	894.81409	-779.68121	-998.81921	802.69836	-818.68256	-1023.08813	796.34198	-771.33496	-988.61133	731.40784	-782.18713	-1024.94568	935.24176	-1129.8407	-1062.19202	920.85175	-901.75275	-1191.69812	963.48834	-1108.45276	-1210.80505	961.8407	-960.25232	-1035.23779	638.44397	-1187.37537	-1002.66547	466.35767	-1141.49414	-1056.95654	272.34988	-1154.06067	-1092.28772	63.66258	-1118.59644	-1140.32288	28.20131	-1090.0481	-951.13293	31.43617	-1064.3158	-1125.54272	621.08685	-859.22614	-1097.40002	441.73938	-872.95331	-1249.41211	330.82135	-893.61969	-1418.7959	209.90947	-960.0249	-1459.45056	224.66246	-1022.22839	-1376.38965	73.22803	-963.49274	-1091.78784	1663.32617	-1028.41333	NaN	NaN	NaN	NaN	NaN	NaN	NaN	NaN	NaN	NaN	NaN	NaN	NaN	NaN	NaN	NaN	NaN	NaN
28	0.27	-979.7215	1626.04785	-1065.01294	-1007.06244	1621.15894	-934.18585	-1093.40942	1557.39539	-1087.97363	-1116.13184	1552.73938	-958.74402	-1107.98169	1408.1416	-1041.84668	-1170.11475	1108.37732	-1038.33447	-986.1701	1331.21326	-1019.20026	-955.16107	1160.24426	-1018.61304	-1180.52356	1241.87012	-951.82117	-1004.35278	1373.41162	-1178.69055	-1024.42749	1177.8833	-1250.26013	-1037.73193	1055.27063	-1262.31531	-1045.35913	924.32172	-1263.64636	-1074.45422	804.16522	-1241.2688	-1071.12463	816.95508	-1296.7948	-1114.17896	736.38104	-1293.61731	-1060.12085	1360.51184	-870.67981	-1072.39331	1141.64111	-794.11902	-1056.08521	1029.51318	-780.3313	-1029.41211	895.5946	-779.17267	-994.12927	802.91656	-818.17944	-1019.3205	796.94672	-770.80682	-985.97198	731.27228	-781.29645	-1014.76477	936.26288	-1130.86108	-1051.27747	922.67383	-902.42267	-1181.39453	964.96338	-1108.72449	-1200.14331	963.18188	-960.67847	-1029.78369	638.09546	-1187.0365	-1000.68793	466.05167	-1141.37683	-1056.19495	272.32581	-1154.29419	-1092.45752	63.6305	-1118.68152	-1140.44641	28.20541	-1090.0481	-951.47528	31.49319	-1064.21582	-1107.50427	623.02942	-859.47888	-1073.46191	444.86914	-872.28558	-1223.66565	332.09998	-892.69135	-1392.65039	210.30199	-959.18573	-1434.50403	224.38031	-1020.98163	-1346.78503	74.91517	-963.54218	-1081.60095	1664.86365	-1029.21301	NaN	NaN	NaN	NaN	NaN	NaN	NaN	NaN	NaN	NaN	NaN	NaN	NaN	NaN	NaN	NaN	NaN	NaN
29	0.28	-969.49603	1627.34546	-1065.30481	-996.94855	1622.74219	-934.73578	-1083.04224	1558.76294	-1088.55676	-1106.10107	1554.3656	-959.33972	-1097.53772	1409.68396	-1042.50403	-1159.44409	1109.73865	-1039.37305	-976.10187	1332.7384	-1018.96173	-944.71613	1161.79236	-1018.70453	-1170.81726	1243.2677	-953.51611	-993.42535	1374.4906	-1178.79944	-1009.42981	1178.5835	-1249.75476	-1020.54956	1055.71765	-1261.83606	-1025.83484	924.75861	-1262.63892	-1052.7876	804.2149	-1240.38147	-1049.01038	816.80652	-1295.91052	-1088.0354	734.67175	-1292.82275	-1051.22754	1361.82971	-871.00177	-1065.23706	1142.85168	-794.65295	-1049.70496	1030.64807	-780.52448	-1024.48413	896.31787	-779.00391	-989.94641	803.17303	-817.28583	-1015.7312	797.51178	-770.31976	-983.52399	731.04913	-780.46869	-1004.39838	937.17535	-1131.96338	-1040.22571	924.62634	-903.20721	-1171.14294	966.3847	-1108.90186	-1189.43945	964.71912	-961.00049	-1023.31158	638.47473	-1187.01868	-998.81299	465.60202	-1141.396	-1055.64441	272.35416	-1154.56433	-1092.56311	63.63124	-1118.73706	-1140.65735	28.17995	-1090.15051	-951.61194	31.51713	-1064.25598	-1088.86096	625.10492	-859.62451	-1049.62036	448.24286	-871.94281	-1197.88647	333.09113	-891.82709	-1365.21997	209.08388	-958.08038	-1408.44849	222.03548	-1019.58716	-1315.1665	75.44005	-963.13	-1071.21411	1666.41479	-1030.00439	NaN	NaN	NaN	NaN	NaN	NaN	NaN	NaN	NaN	NaN	NaN	NaN	NaN	NaN	NaN	NaN	NaN	NaN
